<svg width="343" height="188" xmlns="http://www.w3.org/2000/svg"><path d="m276.667 0 1.1.006c.462.006.924.014 1.385.026l-1.06-.021c.45.006.899.016 1.347.03l-.287-.009a94.716 94.716 0 0 1 2.514.1l-.954-.046c.408.017.815.038 1.222.06l-.268-.014c.486.025.97.055 1.455.088l-1.187-.074c.413.023.825.049 1.236.077l-.05-.003c.432.03.863.062 1.293.097L283.17.223c.436.03.87.063 1.305.099l-.062-.005c.361.03.722.061 1.082.095l-1.02-.09c.44.036.88.076 1.318.119l-.298-.029c.476.045.952.093 1.426.145L285.793.44c.41.04.819.082 1.227.127l-.1-.011c.432.047.863.097 1.293.15l-1.193-.14c.428.048.856.098 1.283.151l-.09-.01c.391.047.782.098 1.172.151l-1.082-.14c.417.051.833.106 1.248.163l-.166-.023c.41.056.82.115 1.23.176L289.55.882c.447.062.894.127 1.339.195l-.275-.042c.45.067.899.138 1.347.212l-1.072-.17c.4.06.799.125 1.197.19l-.125-.02c.393.065.785.132 1.176.202l-1.051-.181c.41.068.819.139 1.227.212l-.176-.031c.386.068.77.14 1.154.213l-.978-.182c.453.082.904.166 1.354.254l-.376-.072a92.9 92.9 0 0 1 1.33.264l-.954-.192a92.883 92.883 0 0 1 3.635.786l-.261-.061c.42.098.84.2 1.257.303l-.996-.242c.418.1.835.201 1.25.306l-.254-.064a92.709 92.709 0 0 1 2.366.623l-.94-.255c.386.102.77.207 1.155.315l-.215-.06c.391.108.781.22 1.17.333l-.955-.273c.446.124.89.252 1.334.384l-.378-.111c.424.123.848.25 1.27.38l-.892-.27c.333.1.665.2.997.302l-.105-.032c.36.11.717.222 1.075.337l-.97-.305a92.68 92.68 0 0 1 5.969 2.065l-.242-.092a92.8 92.8 0 0 1 2.32.92l-.897-.364c.334.134.668.27 1 .407l-.102-.042a92.9 92.9 0 0 1 1.035.434l-.933-.392a92.905 92.905 0 0 1 3.382 1.48l-.13-.06c.345.158.69.319 1.032.482l-.902-.423a93.066 93.066 0 0 1 6.523 3.327l-.111-.063c.357.2.713.401 1.067.605l-.956-.542a93.442 93.442 0 0 1 7.353 4.58l-.308-.212c.366.25.73.503 1.092.757l-.784-.545c.33.227.66.457.988.69l-.204-.145a93.94 93.94 0 0 1 4.97 3.753l-.146-.118c.332.267.662.536.99.808l-.843-.69a94.21 94.21 0 0 1 2.799 2.354l-.175-.153c.318.276.634.555.948.836l-.773-.683a94.312 94.312 0 0 1 2.693 2.448l-.154-.146c.293.277.586.555.876.835l-.722-.69A94.398 94.398 0 0 1 343 27.635L318.252 53.02c-10.575-10.807-25.3-17.51-41.585-17.51-32.188 0-58.282 26.186-58.282 58.489s26.094 58.489 58.282 58.489c15.657 0 29.871-6.196 40.342-16.277l24.745 25.386c-.497.482-1 .959-1.507 1.43l.12-.112c-.286.266-.573.53-.861.793l.74-.681a94.362 94.362 0 0 1-3.46 3.058l.724-.616c-.3.258-.6.513-.904.766l.18-.15c-.325.273-.653.545-.982.814l.802-.664c-.31.26-.62.517-.934.772l.132-.108c-.319.26-.64.52-.962.776l.83-.668c-.311.253-.624.505-.938.755l.108-.087c-.276.22-.554.439-.832.656l.724-.57c-.307.244-.616.486-.926.726l.202-.156c-.328.255-.657.507-.988.758l.786-.602a94.089 94.089 0 0 1-3.896 2.857l.2-.138c-.34.237-.68.471-1.022.703l.822-.565a93.869 93.869 0 0 1-7.087 4.468l.106-.06c-.337.192-.676.382-1.015.57l.909-.51a93.4 93.4 0 0 1-1.135.636l.226-.125a93.37 93.37 0 0 1-2.372 1.271l.318-.165c-.382.2-.766.396-1.15.59l.832-.425c-.355.184-.712.366-1.07.545l.237-.12a93.165 93.165 0 0 1-3.555 1.703l.307-.14c-.401.184-.804.364-1.208.542l.9-.402c-.344.156-.69.31-1.037.462l.137-.06c-.32.14-.64.28-.961.417l.824-.357c-.36.158-.721.314-1.084.467l.26-.11c-.39.166-.783.33-1.176.492l.916-.382c-.384.162-.769.322-1.155.48l.239-.098c-.384.158-.77.313-1.156.466l.917-.368c-.41.167-.82.33-1.233.492l.316-.124a92.808 92.808 0 0 1-2.268.862l.823-.305c-.334.125-.669.249-1.004.37l.18-.065c-.41.15-.821.296-1.234.44l1.054-.375a92.73 92.73 0 0 1-3.484 1.187l.19-.06c-.398.127-.796.251-1.195.373l1.005-.313c-.416.132-.833.262-1.252.388l.247-.075c-.39.12-.783.237-1.175.352l.928-.277a92.67 92.67 0 0 1-7.076 1.843l.12-.026c-.408.09-.817.176-1.226.26l1.106-.234a92.838 92.838 0 0 1-4.965.945l.253-.041c-.419.069-.839.135-1.26.199l1.007-.158c-.44.071-.88.14-1.321.205l.315-.047a93.265 93.265 0 0 1-2.446.336l.953-.123c-.421.057-.843.11-1.266.161l.313-.038c-.442.055-.886.107-1.33.156l1.017-.118a93.559 93.559 0 0 1-5.05.472l.27-.019c-.434.03-.87.058-1.305.082l1.035-.063a94.27 94.27 0 0 1-3.881.176l.447-.012a94.92 94.92 0 0 1-1.369.03l.922-.018c-.45.012-.902.02-1.354.025l.432-.006c-.372.006-.745.01-1.119.01l-.332.001C224.937 188 183 145.915 183 94 183 42.604 224.102.843 275.118.013L276.667 0ZM29.227 5l51.81 68.944L132.85 5H160v178h-36.949V72.105L81.536 126.09h-.996L39.024 70.016V183H0V5h29.227Z" fill="#000" fill-rule="evenodd"/></svg>